<svg xmlns="http://www.w3.org/2000/svg" width="1200" height="1200" viewBox="0 0 1200 1200">
  <defs>
    <linearGradient id="bg" x1="0" y1="0" x2="1" y2="1">
      <stop offset="0%" stop-color="#fde68a"/>
      <stop offset="45%" stop-color="#fecaca"/>
      <stop offset="100%" stop-color="#bfdbfe"/>
    </linearGradient>
    <radialGradient id="glow" cx="30%" cy="30%" r="70%">
      <stop offset="0%" stop-color="#ffffff" stop-opacity="0.9"/>
      <stop offset="60%" stop-color="#ffffff" stop-opacity="0.25"/>
      <stop offset="100%" stop-color="#ffffff" stop-opacity="0"/>
    </radialGradient>
    <filter id="softShadow" x="-20%" y="-20%" width="140%" height="140%">
      <feDropShadow dx="0" dy="14" stdDeviation="18" flood-color="#0f172a" flood-opacity="0.18"/>
    </filter>
  </defs>

  <rect width="1200" height="1200" fill="url(#bg)"/>
  <rect width="1200" height="1200" fill="url(#glow)"/>

  <g opacity="0.35">
    <circle cx="260" cy="980" r="240" fill="#ffffff" opacity="0.22"/>
    <circle cx="980" cy="260" r="260" fill="#ffffff" opacity="0.16"/>
    <path d="M140 540 C 280 420, 420 420, 560 540 S 860 660, 1080 520" fill="none" stroke="#ffffff" stroke-opacity="0.45" stroke-width="24" stroke-linecap="round"/>
  </g>

  <g filter="url(#softShadow)">
    <rect x="120" y="760" width="960" height="300" rx="56" fill="#0b1220" fill-opacity="0.44"/>
  </g>

  <g fill="#ffffff">
    <text x="170" y="860" font-family="ui-sans-serif, system-ui, -apple-system, Segoe UI, Roboto, Helvetica, Arial" font-size="86" font-weight="800" letter-spacing="-1">
      Pets Toys
    </text>
    <text x="170" y="930" font-family="ui-sans-serif, system-ui, -apple-system, Segoe UI, Roboto, Helvetica, Arial" font-size="34" font-weight="600" opacity="0.85">
      Playtime favorites.
    </text>
  </g>

  <g opacity="0.35" transform="translate(850 800)" fill="#ffffff">
    <circle cx="66" cy="56" r="32" opacity="0.75"/>
    <circle cx="146" cy="40" r="26" opacity="0.65"/>
    <circle cx="206" cy="76" r="30" opacity="0.7"/>
    <path d="M46 180c0-54 44-98 98-98s98 44 98 98-44 98-98 98-98-44-98-98z" opacity="0.85"/>
    <circle cx="110" cy="170" r="14" opacity="0.75"/>
    <circle cx="178" cy="170" r="14" opacity="0.75"/>
  </g>
</svg>

