<svg xmlns="http://www.w3.org/2000/svg" width="1200" height="1200" viewBox="0 0 1200 1200">
  <defs>
    <linearGradient id="bg" x1="0" y1="0" x2="1" y2="1">
      <stop offset="0%" stop-color="#e0f2fe"/>
      <stop offset="45%" stop-color="#dbeafe"/>
      <stop offset="100%" stop-color="#fde2e2"/>
    </linearGradient>
    <radialGradient id="glow" cx="30%" cy="30%" r="70%">
      <stop offset="0%" stop-color="#ffffff" stop-opacity="0.9"/>
      <stop offset="60%" stop-color="#ffffff" stop-opacity="0.25"/>
      <stop offset="100%" stop-color="#ffffff" stop-opacity="0"/>
    </radialGradient>
    <filter id="softShadow" x="-20%" y="-20%" width="140%" height="140%">
      <feDropShadow dx="0" dy="14" stdDeviation="18" flood-color="#0f172a" flood-opacity="0.18"/>
    </filter>
  </defs>

  <rect width="1200" height="1200" fill="url(#bg)"/>
  <rect width="1200" height="1200" fill="url(#glow)"/>

  <g opacity="0.35">
    <path d="M150 520 C 280 410, 420 430, 560 530 S 860 660, 1060 500" fill="none" stroke="#ffffff" stroke-opacity="0.45" stroke-width="24" stroke-linecap="round"/>
    <circle cx="260" cy="980" r="240" fill="#ffffff" opacity="0.22"/>
    <circle cx="980" cy="260" r="260" fill="#ffffff" opacity="0.16"/>
  </g>

  <g filter="url(#softShadow)">
    <rect x="120" y="760" width="960" height="300" rx="56" fill="#0b1220" fill-opacity="0.44"/>
  </g>

  <g fill="#ffffff">
    <text x="170" y="860" font-family="ui-sans-serif, system-ui, -apple-system, Segoe UI, Roboto, Helvetica, Arial" font-size="86" font-weight="800" letter-spacing="-1">
      Skin Care
    </text>
    <text x="170" y="930" font-family="ui-sans-serif, system-ui, -apple-system, Segoe UI, Roboto, Helvetica, Arial" font-size="34" font-weight="600" opacity="0.85">
      Cleanse and hydrate.
    </text>
  </g>

  <g opacity="0.35" transform="translate(860 798)" fill="#ffffff">
    <path d="M92 0c28 0 50 22 50 50v56c0 28-22 50-50 50s-50-22-50-50V50C42 22 64 0 92 0z"/>
    <path d="M52 160h80l24 164H28l24-164z"/>
    <path d="M64 100h56" stroke="#ffffff" stroke-width="16" stroke-linecap="round" fill="none" opacity="0.8"/>
  </g>
</svg>

