<svg xmlns="http://www.w3.org/2000/svg" width="1200" height="1200" viewBox="0 0 1200 1200">
  <defs>
    <linearGradient id="bg" x1="0" y1="0" x2="1" y2="1">
      <stop offset="0%" stop-color="#fde2ea"/>
      <stop offset="45%" stop-color="#e9d5ff"/>
      <stop offset="100%" stop-color="#c7d2fe"/>
    </linearGradient>
    <radialGradient id="glow" cx="30%" cy="30%" r="65%">
      <stop offset="0%" stop-color="#ffffff" stop-opacity="0.9"/>
      <stop offset="55%" stop-color="#ffffff" stop-opacity="0.25"/>
      <stop offset="100%" stop-color="#ffffff" stop-opacity="0"/>
    </radialGradient>
    <filter id="softShadow" x="-20%" y="-20%" width="140%" height="140%">
      <feDropShadow dx="0" dy="14" stdDeviation="18" flood-color="#0f172a" flood-opacity="0.18"/>
    </filter>
  </defs>

  <rect width="1200" height="1200" fill="url(#bg)"/>
  <rect width="1200" height="1200" fill="url(#glow)"/>

  <g opacity="0.45">
    <circle cx="260" cy="980" r="240" fill="#ffffff" opacity="0.35"/>
    <circle cx="980" cy="260" r="260" fill="#ffffff" opacity="0.25"/>
    <path d="M140 540 C 260 420, 380 420, 500 540 S 740 660, 860 540 S 1100 420, 1180 520" fill="none" stroke="#ffffff" stroke-opacity="0.45" stroke-width="26" stroke-linecap="round"/>
  </g>

  <g filter="url(#softShadow)">
    <rect x="120" y="760" width="960" height="300" rx="56" fill="#0f172a" fill-opacity="0.22"/>
    <rect x="120" y="740" width="960" height="300" rx="56" fill="#0b1220" fill-opacity="0.42"/>
  </g>

  <g fill="#ffffff">
    <text x="170" y="860" font-family="ui-sans-serif, system-ui, -apple-system, Segoe UI, Roboto, Helvetica, Arial" font-size="86" font-weight="800" letter-spacing="-1">
      Sportswear
    </text>
    <text x="170" y="930" font-family="ui-sans-serif, system-ui, -apple-system, Segoe UI, Roboto, Helvetica, Arial" font-size="34" font-weight="600" opacity="0.85">
      Train, commute, and move.
    </text>
  </g>

  <g opacity="0.35" transform="translate(840 812)">
    <path d="M92 0c40 0 72 32 72 72s-32 72-72 72S20 112 20 72 52 0 92 0zm0 38a34 34 0 1 0 0 68 34 34 0 0 0 0-68z" fill="#ffffff"/>
    <path d="M0 222c0-48 39-86 86-86h12c48 0 86 38 86 86v22H0v-22z" fill="#ffffff"/>
  </g>
</svg>
