<svg xmlns="http://www.w3.org/2000/svg" width="1200" height="1200" viewBox="0 0 1200 1200">
  <defs>
    <linearGradient id="bg" x1="0" y1="0" x2="1" y2="1">
      <stop offset="0%" stop-color="#fef3c7"/>
      <stop offset="45%" stop-color="#fde68a"/>
      <stop offset="100%" stop-color="#fce7f3"/>
    </linearGradient>
    <radialGradient id="glow" cx="70%" cy="30%" r="70%">
      <stop offset="0%" stop-color="#ffffff" stop-opacity="0.85"/>
      <stop offset="60%" stop-color="#ffffff" stop-opacity="0.22"/>
      <stop offset="100%" stop-color="#ffffff" stop-opacity="0"/>
    </radialGradient>
    <filter id="softShadow" x="-20%" y="-20%" width="140%" height="140%">
      <feDropShadow dx="0" dy="14" stdDeviation="18" flood-color="#0f172a" flood-opacity="0.16"/>
    </filter>
  </defs>

  <rect width="1200" height="1200" fill="url(#bg)"/>
  <rect width="1200" height="1200" fill="url(#glow)"/>

  <g opacity="0.32">
    <path d="M160 360c90 60 210 60 300 0s210-60 300 0 210 60 300 0" fill="none" stroke="#ffffff" stroke-width="26" stroke-linecap="round"/>
    <path d="M130 540c110 80 250 80 360 0s250-80 360 0 250 80 360 0" fill="none" stroke="#ffffff" stroke-width="18" stroke-linecap="round"/>
  </g>

  <g filter="url(#softShadow)">
    <rect x="120" y="760" width="960" height="300" rx="56" fill="#0f172a" fill-opacity="0.22"/>
    <rect x="120" y="740" width="960" height="300" rx="56" fill="#111827" fill-opacity="0.42"/>
  </g>

  <g fill="#ffffff">
    <text x="170" y="860" font-family="ui-sans-serif, system-ui, -apple-system, Segoe UI, Roboto, Helvetica, Arial" font-size="70" font-weight="800" letter-spacing="-1">
      Women’s Loungewear
    </text>
    <text x="170" y="930" font-family="ui-sans-serif, system-ui, -apple-system, Segoe UI, Roboto, Helvetica, Arial" font-size="34" font-weight="600" opacity="0.85">
      Cozy sets for home days.
    </text>
  </g>

  <g opacity="0.35" transform="translate(882 810)">
    <path d="M28 0h116c20 0 36 16 36 36v18c0 20-16 36-36 36h-34l10 40c5 21-7 42-28 47l-12 3c-21 5-42-7-47-28L22 94H28c-20 0-36-16-36-36V36C-8 16 8 0 28 0zm0 36v22c0 0 0 0 0 0h116c0 0 0 0 0 0V36H28z" fill="#ffffff"/>
  </g>
</svg>
