<svg xmlns="http://www.w3.org/2000/svg" width="1200" height="1200" viewBox="0 0 1200 1200">
  <defs>
    <linearGradient id="bg" x1="0" y1="0" x2="1" y2="1">
      <stop offset="0%" stop-color="#fce7f3"/>
      <stop offset="45%" stop-color="#e0e7ff"/>
      <stop offset="100%" stop-color="#bbf7d0"/>
    </linearGradient>
    <radialGradient id="glow" cx="30%" cy="30%" r="70%">
      <stop offset="0%" stop-color="#ffffff" stop-opacity="0.9"/>
      <stop offset="60%" stop-color="#ffffff" stop-opacity="0.25"/>
      <stop offset="100%" stop-color="#ffffff" stop-opacity="0"/>
    </radialGradient>
    <filter id="softShadow" x="-20%" y="-20%" width="140%" height="140%">
      <feDropShadow dx="0" dy="14" stdDeviation="18" flood-color="#0f172a" flood-opacity="0.18"/>
    </filter>
  </defs>

  <rect width="1200" height="1200" fill="url(#bg)"/>
  <rect width="1200" height="1200" fill="url(#glow)"/>

  <g opacity="0.35">
    <circle cx="260" cy="980" r="240" fill="#ffffff" opacity="0.22"/>
    <circle cx="980" cy="260" r="260" fill="#ffffff" opacity="0.16"/>
  </g>

  <g filter="url(#softShadow)">
    <rect x="120" y="760" width="960" height="300" rx="56" fill="#0b1220" fill-opacity="0.44"/>
  </g>

  <g fill="#ffffff">
    <text x="170" y="860" font-family="ui-sans-serif, system-ui, -apple-system, Segoe UI, Roboto, Helvetica, Arial" font-size="86" font-weight="800" letter-spacing="-1">
      Facial Care
    </text>
    <text x="170" y="930" font-family="ui-sans-serif, system-ui, -apple-system, Segoe UI, Roboto, Helvetica, Arial" font-size="34" font-weight="600" opacity="0.85">
      Masks and gentle refresh.
    </text>
  </g>

  <g opacity="0.35" transform="translate(852 792)" fill="#ffffff">
    <path d="M98 0c54 0 98 44 98 98v52c0 90-62 166-140 182-78-16-140-92-140-182V98C16 44 60 0 114 0h-16z"/>
    <path d="M80 112c12 0 22 10 22 22s-10 22-22 22-22-10-22-22 10-22 22-22zm150 0c12 0 22 10 22 22s-10 22-22 22-22-10-22-22 10-22 22-22z" opacity="0.75"/>
  </g>
</svg>

