<svg xmlns="http://www.w3.org/2000/svg" width="1200" height="1200" viewBox="0 0 1200 1200">
  <defs>
    <linearGradient id="bg" x1="0" y1="0" x2="1" y2="1">
      <stop offset="0%" stop-color="#fff1f2"/>
      <stop offset="50%" stop-color="#ffe4e6"/>
      <stop offset="100%" stop-color="#f5d0fe"/>
    </linearGradient>
    <pattern id="lace" width="80" height="80" patternUnits="userSpaceOnUse">
      <circle cx="20" cy="20" r="10" fill="#ffffff" fill-opacity="0.25"/>
      <circle cx="60" cy="60" r="10" fill="#ffffff" fill-opacity="0.25"/>
      <path d="M0 40 C 20 20, 60 20, 80 40" fill="none" stroke="#ffffff" stroke-opacity="0.22" stroke-width="6" stroke-linecap="round"/>
      <path d="M0 0 C 20 20, 60 20, 80 0" fill="none" stroke="#ffffff" stroke-opacity="0.18" stroke-width="6" stroke-linecap="round"/>
    </pattern>
    <filter id="softShadow" x="-20%" y="-20%" width="140%" height="140%">
      <feDropShadow dx="0" dy="14" stdDeviation="18" flood-color="#111827" flood-opacity="0.18"/>
    </filter>
  </defs>

  <rect width="1200" height="1200" fill="url(#bg)"/>
  <rect width="1200" height="1200" fill="url(#lace)"/>

  <g opacity="0.28">
    <path d="M210 240 C 340 160, 520 160, 650 240 S 960 380, 1020 260" fill="none" stroke="#ffffff" stroke-width="34" stroke-linecap="round"/>
    <path d="M160 520 C 320 420, 520 420, 680 520 S 980 660, 1120 520" fill="none" stroke="#ffffff" stroke-width="22" stroke-linecap="round"/>
  </g>

  <g filter="url(#softShadow)">
    <rect x="120" y="760" width="960" height="300" rx="56" fill="#111827" fill-opacity="0.26"/>
    <rect x="120" y="740" width="960" height="300" rx="56" fill="#0f172a" fill-opacity="0.46"/>
  </g>

  <g fill="#ffffff">
    <text x="170" y="860" font-family="ui-sans-serif, system-ui, -apple-system, Segoe UI, Roboto, Helvetica, Arial" font-size="84" font-weight="800" letter-spacing="-1">
      Lingerie Set
    </text>
    <text x="170" y="930" font-family="ui-sans-serif, system-ui, -apple-system, Segoe UI, Roboto, Helvetica, Arial" font-size="34" font-weight="600" opacity="0.85">
      Elegant, curated essentials.
    </text>
  </g>

  <g opacity="0.34" transform="translate(864 818)">
    <path d="M70 0c22 0 42 10 56 28l38 50c10 13 8 31-5 42l-27 23c-17 14-42 13-58-3l-44-43-44 43c-16 16-41 17-58 3l-27-23c-13-11-15-29-5-42l38-50C-2 10 18 0 40 0h30zm-30 38h-1c-10 0-20 5-26 13L-22 96l21 18 51-49 51 49 21-18-35-45c-6-8-16-13-26-13H40z" fill="#ffffff"/>
  </g>
</svg>
