<svg xmlns="http://www.w3.org/2000/svg" width="1200" height="1200" viewBox="0 0 1200 1200">
  <defs>
    <linearGradient id="bg" x1="0" y1="0" x2="1" y2="1">
      <stop offset="0%" stop-color="#fef3c7"/>
      <stop offset="45%" stop-color="#d9f99d"/>
      <stop offset="100%" stop-color="#a7f3d0"/>
    </linearGradient>
    <radialGradient id="glow" cx="30%" cy="30%" r="70%">
      <stop offset="0%" stop-color="#ffffff" stop-opacity="0.9"/>
      <stop offset="60%" stop-color="#ffffff" stop-opacity="0.25"/>
      <stop offset="100%" stop-color="#ffffff" stop-opacity="0"/>
    </radialGradient>
    <filter id="softShadow" x="-20%" y="-20%" width="140%" height="140%">
      <feDropShadow dx="0" dy="14" stdDeviation="18" flood-color="#0f172a" flood-opacity="0.18"/>
    </filter>
  </defs>

  <rect width="1200" height="1200" fill="url(#bg)"/>
  <rect width="1200" height="1200" fill="url(#glow)"/>

  <g opacity="0.4">
    <path d="M120 560 C 260 420, 420 420, 560 560 S 860 700, 1080 540" fill="none" stroke="#ffffff" stroke-opacity="0.45" stroke-width="28" stroke-linecap="round"/>
    <circle cx="260" cy="980" r="240" fill="#ffffff" opacity="0.25"/>
    <circle cx="980" cy="260" r="260" fill="#ffffff" opacity="0.18"/>
  </g>

  <g filter="url(#softShadow)">
    <rect x="120" y="760" width="960" height="300" rx="56" fill="#0b1220" fill-opacity="0.44"/>
  </g>

  <g fill="#ffffff">
    <text x="170" y="860" font-family="ui-sans-serif, system-ui, -apple-system, Segoe UI, Roboto, Helvetica, Arial" font-size="86" font-weight="800" letter-spacing="-1">
      Outdoor Clothing
    </text>
    <text x="170" y="930" font-family="ui-sans-serif, system-ui, -apple-system, Segoe UI, Roboto, Helvetica, Arial" font-size="34" font-weight="600" opacity="0.85">
      Ready for any weather.
    </text>
  </g>

  <g opacity="0.35" transform="translate(860 806)" fill="#ffffff">
    <path d="M0 60c0-34 28-60 62-60h66c34 0 62 26 62 60v10c0 17-8 32-20 42l-52 42v70H72v-70L20 112C8 102 0 87 0 70V60z"/>
    <path d="M52 84h86" stroke="#ffffff" stroke-width="18" stroke-linecap="round" fill="none" opacity="0.8"/>
  </g>
</svg>

