<svg xmlns="http://www.w3.org/2000/svg" width="1200" height="1200" viewBox="0 0 1200 1200">
  <defs>
    <linearGradient id="bg" x1="0" y1="0" x2="1" y2="1">
      <stop offset="0%" stop-color="#fde2e2"/>
      <stop offset="45%" stop-color="#e9d5ff"/>
      <stop offset="100%" stop-color="#bfdbfe"/>
    </linearGradient>
    <radialGradient id="glow" cx="30%" cy="30%" r="70%">
      <stop offset="0%" stop-color="#ffffff" stop-opacity="0.9"/>
      <stop offset="60%" stop-color="#ffffff" stop-opacity="0.25"/>
      <stop offset="100%" stop-color="#ffffff" stop-opacity="0"/>
    </radialGradient>
    <filter id="softShadow" x="-20%" y="-20%" width="140%" height="140%">
      <feDropShadow dx="0" dy="14" stdDeviation="18" flood-color="#0f172a" flood-opacity="0.18"/>
    </filter>
  </defs>

  <rect width="1200" height="1200" fill="url(#bg)"/>
  <rect width="1200" height="1200" fill="url(#glow)"/>

  <g opacity="0.35">
    <circle cx="260" cy="980" r="240" fill="#ffffff" opacity="0.22"/>
    <circle cx="980" cy="260" r="260" fill="#ffffff" opacity="0.16"/>
  </g>

  <g filter="url(#softShadow)">
    <rect x="120" y="760" width="960" height="300" rx="56" fill="#0b1220" fill-opacity="0.44"/>
  </g>

  <g fill="#ffffff">
    <text x="170" y="860" font-family="ui-sans-serif, system-ui, -apple-system, Segoe UI, Roboto, Helvetica, Arial" font-size="86" font-weight="800" letter-spacing="-1">
      Press-On Nails
    </text>
    <text x="170" y="930" font-family="ui-sans-serif, system-ui, -apple-system, Segoe UI, Roboto, Helvetica, Arial" font-size="34" font-weight="600" opacity="0.85">
      Quick and glossy sets.
    </text>
  </g>

  <g opacity="0.35" transform="translate(836 820)" fill="#ffffff">
    <path d="M22 190c0-60 46-108 102-108s102 48 102 108v124H22V190z" opacity="0.85"/>
    <path d="M44 190c0-46 34-82 80-82s80 36 80 82v92H44v-92z" opacity="0.7"/>
    <path d="M206 40c0-22 18-40 40-40h72c22 0 40 18 40 40v38c0 18-10 34-26 40l-50 20v120h-80V138l-44-18c-16-6-26-22-26-40V40z" opacity="0.6"/>
  </g>
</svg>

